<svg xmlns="http://www.w3.org/2000/svg" width="744.094" height="1052.362"><path d="M336.536 1055.85c-7.391-1.816-17.474-3.208-22.406-3.093-4.932.114-8.967-1.52-8.967-3.634 0-2.433-3.833-2.385-10.449.13-6.447 2.451-12.17 2.558-14.945.278-2.474-2.032-11.104-3.685-19.18-3.673-8.074.012-16.97-1.393-19.768-3.122-2.799-1.73-13.228-3.65-23.177-4.267-27.982-1.736-53.618-8.215-69.44-17.55-7.93-4.679-14.418-9.686-14.418-11.126 0-1.44-5.746-5.163-12.77-8.271-7.022-3.109-17.723-10.72-23.778-16.915-6.056-6.195-14.466-11.263-18.689-11.263-4.223 0-8.711-2.69-9.973-5.978-1.262-3.288-5.937-5.979-10.39-5.979s-8.377-2.241-8.72-4.981c-.343-2.74-1.046-9.466-1.563-14.946-.517-5.48-4.544-18.035-8.95-27.899-4.696-10.51-9.143-31.959-10.744-51.811-1.503-18.633-5.142-41.2-8.087-50.15-2.945-8.95-6.536-26.885-7.977-39.855-2.522-22.676-2.148-24.034 9.721-35.319 11.943-11.353 12.262-12.546 9.796-36.611-2.481-24.218-2.215-25.18 10.065-36.396 11.165-10.198 14.198-18.117 26.429-69.005C84.634 525.855 95.85 451.036 101.87 369.54c6.383-86.423 16.315-131.275 39.772-179.613 38.449-79.232 87.432-132.007 150.704-162.371 29.324-14.072 37.18-16.063 70.223-17.791 65.492-3.426 132.529 18.7 173.898 57.397 34.934 32.676 68.753 95.218 93.009 172 26.14 82.749 47.88 249.563 43.772 335.867-2.514 52.81-2.29 54.941 9.83 93.66 14.84 47.4 21.893 78.862 32.558 145.235 8.945 55.678 10.233 77.367 4.02 67.754-2.832-4.382-3.988-1.19-4.332 11.957-.374 14.28-2.334 8.594-9.619-27.899-18.042-90.383-35.196-146.193-60.332-196.286-12.936-25.782-18.271-31.154-23.13-23.292-1.227 1.985 2.377 49.96 8.009 106.612 6.077 61.127 10.83 137.33 11.692 187.44l1.452 84.438-18.307-9.734c-20.007-10.638-26.1-9.955-15.515 1.74 6.41 7.083 6.346 7.602-1.162 9.566-4.366 1.142-8.473.565-9.127-1.28-.652-1.847-9.282.757-19.176 5.787-12.053 6.127-20.601 8.124-25.905 6.053-11.194-4.372-14.75-4.272-11.903.333 1.354 2.192-1.336 3.986-5.978 3.986-4.643 0-7.333-1.794-5.979-3.986 3.747-6.063-6.493-4.755-13.676 1.746-8.494 7.687-68.367 12.124-72.537 5.376-2.216-3.586-4.894-3.075-10.506 2.004-4.142 3.749-13.667 6.789-21.167 6.755-10.27-.046-12.16-1.014-7.657-3.924 4.559-2.947 3.005-3.878-6.549-3.925-7.055-.034-13.453 2.355-14.649 5.47-2.604 6.786-28.862 9.707-47.067 5.236zM152.27 986.514c-4.245-4.245-14.839-4.99-12.289-.864 1.236 2 5.13 3.636 8.654 3.636s5.16-1.248 3.635-2.772zm40.985-4.203c-.19-4.207-1.116-4.988-2.333-1.968-1.11 2.754-3.536 4.07-5.389 2.925-1.853-1.146-4.496-.26-5.873 1.968-1.386 2.242 1.16 4.05 5.703 4.05 5.279 0 8.094-2.489 7.892-6.975zM83.967 953.416c-1.355-2.192-4.257-3.985-6.449-3.985s-2.877 1.793-1.522 3.985c1.354 2.192 4.256 3.986 6.448 3.986s2.877-1.794 1.523-3.986zM95.055 928.1c7.054-2.965 20.793-14.061 30.533-24.66l17.708-19.268-20.381-4.59c-11.21-2.525-32.943-12.054-48.297-21.175-15.353-9.121-28.946-16.584-30.207-16.584-3.898 0-2.483 33.028 2.126 49.632 3.825 13.774 26.127 42.035 33.174 42.035 1.385 0 8.29-2.426 15.344-5.39zm62.15-76.72c39.295-6.542 56.29-13.536 56.29-23.166 0-3 4.54-6.594 10.088-7.986 13.56-3.404 25.75-24.45 25.768-44.495.013-14.423 1.712-17.365 14.96-25.914 24.73-15.958 19.798-39.54-12.6-60.239l-12.31-7.865 14.947 2.517c13.737 2.314 14.945 1.762 14.945-6.83 0-30.114-46.419-21.946-62.01 10.912-15.781 33.254-60.858 35.193-89.44 3.846l-9.963-10.928 18.285 10.549c25.47 14.695 40.945 13.892 57.838-3.002 20.784-20.784 17.605-45.245-6.994-53.82-21.206-7.393-65.45-10.02-78.4-4.655-11.69 4.842-20.62 18.545-20.62 31.64 0 4.143-5.356 9.42-12.953 12.764-12.745 5.61-12.953 6.128-12.953 32.22 0 24.37-.916 27.24-11.3 35.43-9.945 7.842-10.973 10.636-8.575 23.3 1.498 7.914 3.383 19.509 4.188 25.765 3.275 25.448 12.372 35.34 51.757 56.282 22.369 11.893 20.334 11.785 69.052 3.675zM427.876 678.78c8.133-4.183 20.167-13.39 26.744-20.458l11.956-12.853-15.942 10.301c-35.98 23.248-75.88 20.714-120.751-7.672l-22.728-14.377L323 650.182c31.948 33.19 73.775 44.597 104.877 28.599zm-17.56-48.946c12.165-3.515 25.796-14.075 52.736-40.851 30.247-30.064 39.028-41.785 52.43-69.989 19.465-40.961 27.933-74.078 31.388-122.758l2.603-36.662-19.528.16c-19.5.159-19.512.168-8.668 6.052 13.937 7.564 20.27 18.852 14.062 25.061-6.573 6.573-12.24 5.675-9.485-1.503 1.541-4.017-1.183-7.705-7.98-10.802-9.274-4.226-11.117-3.608-18.188 6.1-10.055 13.802-24.713 14.212-33.413.936l-6.463-9.866-12.56 9.357c-12.827 9.557-22.522 9.802-22.522.566 0-2.836 2.69-7.39 5.978-10.12 3.289-2.728 5.982-6.086 5.985-7.462.003-1.375-26.226-1.958-58.287-1.294l-58.294 1.206 8.469 9.015c4.657 4.957 8.468 10.243 8.468 11.746 0 4.622-11.763 3.037-23.853-3.215-10.73-5.549-11.668-5.415-14.02 1.993-3.97 12.51-28.626 11.068-34.591-2.024-4.655-10.216-16.63-13.365-21.41-5.631-1.473 2.383-.682 6.328 1.757 8.768 12.204 12.204-.845 14.447-15.081 2.592l-9.553-7.955 9.251-9.847c8.622-9.178 8.73-9.851 1.582-9.902-4.218-.03-11.94-1.198-17.161-2.595l-9.492-2.54 2.926 31.49c6.738 72.517 32.756 141.05 68.746 181.08 18.307 20.36 62.29 51.59 82.82 58.804 16.25 5.71 31.807 5.737 51.348.09zm-56.978-61.93c-5.473-4.431-8.36-9.751-6.726-12.394 4.024-6.512 58.687-6.067 67.736.55 6.572 4.805 6.28 5.548-4.034 10.247-20.84 9.496-46.34 10.211-56.976 1.598zm10.61-53.214c-13.252-7.72-6.878-11.638 18.932-11.638 19.486 0 25.906 1.376 25.906 5.552 0 10.297-30.499 14.437-44.837 6.086zm-18.205-334.936c6.791 4.241 8.167 3.79 10.017-3.285 2.727-10.43 11.64-10.543 18.081-.229 5.846 9.36 15.018 10.577 15.018 1.993 0-8.314 8.997-7.46 21.015 1.993 13.192 10.377 18.825 10.08 18.9-.997.127-18.477 5.856-20.492 20.848-7.329 7.711 6.771 15.129 12.311 16.484 12.311 1.354 0 2.463-5.274 2.463-11.721 0-13.965 5.033-18.03 15.432-12.465 6.101 3.265 8.773 2.355 13.358-4.552l5.733-8.633 12.017 8.557c6.609 4.706 18.565 15.805 26.569 24.664 8.003 8.859 15.283 16.107 16.177 16.107.893 0 .649-10.761-.544-23.913-2.352-25.942-2.465-25.765 12.851-19.942l10.445 3.971-11.182-20.49c-6.15-11.268-20.567-30.542-32.037-42.83-19.454-20.839-20.568-21.475-16.578-9.472 6.573 19.777 2.134 24.105-7.964 7.765-11.353-18.369-15.236-18.577-13.15-.705 1.925 16.488-2.378 17.618-15.185 3.985-12.968-13.804-15.942-12.559-15.942 6.673v16.637l-9.964-9.36c-7.966-7.485-9.964-8.07-9.964-2.923 0 10.325-6.28 11.379-17.099 2.868-12.311-9.684-13.378-9.741-15.706-.84-3.406 13.024-17.231 9.48-24.864-6.373-6.827-14.18-7.166-14.355-10.529-5.43-1.91 5.073-5.086 8.227-7.057 7.01-1.97-1.219-6.727 2.583-10.57 8.447l-6.985 10.662-9.522-11.07c-9.235-10.736-9.828-10.868-19.702-4.4-5.598 3.67-10.677 6.08-11.286 5.356-.61-.723-3.312-5.547-6.008-10.72l-4.9-9.406-8.592 13.391-8.593 13.391-1.226-16.938c-.674-9.316-2.746-16.939-4.604-16.939-1.859 0-10.893 6.277-20.076 13.95-24.174 20.197-27.26 18.364-16.616-9.867 1.219-3.234-6.082.92-16.225 9.232-18.59 15.231-39.114 38.488-53.19 60.266l-7.629 11.805 11.957-8.48c6.576-4.664 15.992-9.648 20.924-11.077 8.09-2.343 8.967-1.228 8.967 11.39v13.986l16.939-9.685c20.636-11.799 21.717-11.868 24.976-1.6 2.029 6.393 3.788 7.192 8.048 3.657 2.999-2.489 8.974-3.407 13.279-2.04 4.305 1.365 8.98.617 10.39-1.664 4.586-7.42 9.348-4.456 22.688 14.12l13.12 18.269 9.46-10.999c8.192-9.523 10.517-10.34 17.333-6.082zm378.528 729.82c0-5.48.905-7.721 2.01-4.981 1.106 2.74 1.106 7.224 0 9.964-1.105 2.74-2.01.498-2.01-4.982z"/></svg>